# Alias OBJ Model File
# Exported from SketchUp, (c) 2000-2006 Google, Inc.
# File units = meters

mtllib quadruped_under_base.mtl

g Mesh1 Model

usemtl M_0137_Black
v 0.0526561 -0.005 -0.0635126
vt -2.07308 2.5005
vn 0 -1 -0
v 0.065959 -0.005 -0.0505102
vt -2.59681 1.98859
v 0.0614585 -0.005 -0.0424685
vt -2.41963 1.67199
v 0.0577223 -0.005 -0.0340445
vt -2.27253 1.34033
v 0.0547826 -0.005 -0.0253106
vt -2.15679 0.996479
v 0.0526645 -0.005 -0.0163419
vt -2.0734 0.643383
v 0.0513863 -0.005 -0.00721562
vt -2.02308 0.284079
v 0.050959 -0.005 0.00198984
vt -2.00626 -0.0783402
v 0.0513863 -0.005 0.0111953
vt -2.02308 -0.44076
v 0.0526645 -0.005 0.0203216
vt -2.0734 -0.800063
v 0.0547826 -0.005 0.0292903
vt -2.15679 -1.15316
v 0.0577223 -0.005 0.0380241
vt -2.27253 -1.49701
v 0.0614585 -0.005 0.0464481
vt -2.41963 -1.82867
v 0.065959 -0.005 0.0544898
vt -2.59681 -2.14527
v 0.0526561 -0.005 0.0669654
vt -2.07308 -2.63643
v 0.044703 -0.005 0.0624664
vt -1.75996 -2.45931
v 0.0363643 -0.005 0.0587305
vt -1.43167 -2.31223
v 0.0277129 -0.005 0.0557903
vt -1.09106 -2.19647
v 0.0188245 -0.005 0.0536716
vt -0.741122 -2.11305
v 0.00977702 -0.005 0.0523929
vt -0.384922 -2.06271
v 0.000649631 -0.005 0.0519654
vt -0.025576 -2.04588
v -0.00847776 -0.005 0.0523929
vt 0.33377 -2.06271
v -0.0175252 -0.005 0.0536716
vt 0.68997 -2.11305
v -0.0264136 -0.005 0.0557903
vt 1.03991 -2.19647
v -0.035065 -0.005 0.0587305
vt 1.38051 -2.31223
v -0.0434038 -0.005 0.0624664
vt 1.70881 -2.45931
v -0.0513569 -0.005 0.0669654
vt 2.02192 -2.63643
v -0.0643593 -0.005 0.0531537
vt 2.53383 -2.09266
v -0.0598609 -0.005 0.045232
vt 2.35673 -1.78079
v -0.0561251 -0.005 0.0369234
vt 2.20965 -1.45368
v -0.0531847 -0.005 0.0283011
vt 2.09389 -1.11422
v -0.0510657 -0.005 0.0194412
vt 2.01046 -0.7654
v -0.0497869 -0.005 0.0104215
vt 1.96011 -0.410297
v -0.0493593 -0.005 0.00132175
vt 1.94328 -0.0520375
v -0.0497869 -0.005 -0.00777804
vt 1.96011 0.306222
v -0.0510657 -0.005 -0.0167977
vt 2.01046 0.661325
v -0.0531847 -0.005 -0.0256576
vt 2.09389 1.01014
v -0.0561251 -0.005 -0.0342799
vt 2.20965 1.3496
v -0.0598609 -0.005 -0.0425885
vt 2.35673 1.67671
v -0.0643593 -0.005 -0.0505102
vt 2.53383 1.98859
v -0.0513569 -0.005 -0.0635126
vt 2.02192 2.5005
v -0.0434038 -0.005 -0.0590136
vt 1.70881 2.32337
v -0.035065 -0.005 -0.0552777
vt 1.38051 2.17629
v -0.0264136 -0.005 -0.0523375
vt 1.03991 2.06053
v -0.0175252 -0.005 -0.0502188
vt 0.68997 1.97712
v -0.00847776 -0.005 -0.0489401
vt 0.33377 1.92678
v 0.000649631 -0.005 -0.0485126
vt -0.025576 1.90995
v 0.00977702 -0.005 -0.0489401
vt -0.384922 1.92678
v 0.0188245 -0.005 -0.0502188
vt -0.741122 1.97712
v 0.0277129 -0.005 -0.0523375
vt -1.09106 2.06053
v 0.0363643 -0.005 -0.0552777
vt -1.43167 2.17629
v 0.044703 -0.005 -0.0590136
vt -1.75996 2.32337
f 1/1/1 2/2/1 3/3/1 4/4/1 5/5/1 6/6/1 7/7/1 8/8/1 9/9/1 10/10/1 11/11/1 12/12/1 13/13/1 14/14/1 15/15/1 16/16/1 17/17/1 18/18/1 19/19/1 20/20/1 21/21/1 22/22/1 23/23/1 24/24/1 25/25/1 26/26/1 27/27/1 28/28/1 29/29/1 30/30/1 31/31/1 32/32/1 33/33/1 34/34/1 35/35/1 36/36/1 37/37/1 38/38/1 39/39/1 40/40/1 41/41/1 42/42/1 43/43/1 44/44/1 45/45/1 46/46/1 47/47/1 48/48/1 49/49/1 50/50/1 51/51/1 52/52/1 

vt -0.467079 -0.19685
vn 0.698985 0 -0.715136
vt 0.265279 -0.19685
v 0.0526561 9.16489e-018 -0.0635126
vt 0.265279 3.60822e-016
v 0.065959 9.16489e-018 -0.0505102
vt -0.467079 3.60822e-016
f 2/53/2 1/54/2 53/55/2 54/56/2 

vt -3.03554 -0.19685
vn -0.492368 0 -0.870387
vt -2.6758 -0.19685
vn -0.451109 0 -0.892469
v 0.044703 9.16489e-018 -0.0590136
vt -2.6758 3.60822e-016
vt -3.03554 3.60822e-016
f 1/57/3 52/58/4 55/59/4 53/60/3 

vt -2.55607 -0.19685
vt -2.19633 -0.19685
vn -0.36572 -1.44208e-017 -0.930725
v 0.0363643 9.16489e-018 -0.0552777
vt -2.19633 3.60822e-016
vt -2.55607 3.60822e-016
f 52/61/4 51/62/5 56/63/5 55/64/4 

vt -2.0558 -0.19685
vt -1.69606 -0.19685
vn -0.277129 -1.44208e-017 -0.960833
v 0.0277129 9.16489e-018 -0.0523375
vt -1.69606 4.06915e-016
vt -2.0558 4.06915e-016
f 51/65/5 50/66/6 57/67/6 56/68/5 

vt -1.53911 -0.19685
vt -1.17937 -0.19685
vn -0.186111 1.84593e-032 -0.982529
v 0.0188245 9.16489e-018 -0.0502188
vt -1.17937 3.60822e-016
vt -1.53911 3.60822e-016
f 50/69/6 49/70/7 58/71/7 57/72/6 

vt -1.01051 -0.19685
vt -0.65077 -0.19685
vn -0.0934649 0 -0.995623
v 0.00977702 9.16489e-018 -0.0489401
vt -0.65077 3.60822e-016
vt -1.01051 3.60822e-016
f 49/73/7 48/74/8 59/75/8 58/76/7 

vt -0.474642 -0.19685
vt -0.114902 -0.19685
vn 6.9465e-017 0 -1
v 0.000649631 9.16489e-018 -0.0485126
vt -0.114902 3.60822e-016
vt -0.474642 3.60822e-016
f 48/77/8 47/78/9 60/79/9 59/80/8 

vt 0.0638062 -0.19685
vt 0.423546 -0.19685
vn 0.0934649 0 -0.995623
v -0.00847776 9.16489e-018 -0.0489401
vt 0.423546 3.60822e-016
vt 0.0638062 3.60822e-016
f 47/81/9 46/82/10 61/83/10 60/84/9 

vt 0.600121 -0.19685
vt 0.959861 -0.19685
vn 0.186111 0 -0.982529
v -0.0175252 9.16489e-018 -0.0502188
vt 0.959861 3.60822e-016
vt 0.600121 3.60822e-016
f 46/85/10 45/86/11 62/87/11 61/88/10 

vt 1.12961 -0.19685
vt 1.48935 -0.19685
vn 0.277129 0 -0.960833
v -0.0264136 9.16489e-018 -0.0523375
vt 1.48935 3.60822e-016
vt 1.12961 3.60822e-016
f 45/89/11 44/90/12 63/91/12 62/92/11 

vt 1.64763 -0.19685
vt 2.00737 -0.19685
vn 0.36572 0 -0.930725
v -0.035065 9.16489e-018 -0.0552777
vt 2.00737 3.60822e-016
vt 1.64763 3.60822e-016
f 44/93/12 43/94/13 64/95/13 63/96/12 

vt 2.14965 -0.19685
vt 2.50939 -0.19685
vn 0.451109 7.83941e-032 -0.892469
v -0.0434038 9.16489e-018 -0.0590136
vt 2.50939 3.60822e-016
vt 2.14965 3.60822e-016
f 43/97/13 42/98/14 65/99/14 64/100/13 

vt 2.63128 -0.19685
vt 2.99102 -0.19685
vn 0.492368 1.56617e-031 -0.870387
v -0.0513569 9.16489e-018 -0.0635126
vt 2.99102 3.60822e-016
vt 2.63128 3.60822e-016
f 42/101/14 41/102/15 66/103/15 65/104/14 

vt -0.338402 -0.19685
vn -0.707107 -2.24922e-031 -0.707107
vt 0.385544 -0.19685
v -0.0643593 9.16489e-018 -0.0505102
vt 0.385544 3.60822e-016
vt -0.338402 3.60822e-016
f 41/105/16 40/106/16 67/107/16 66/108/16 

vt -2.98043 -0.19685
vn -0.869577 -3.89283e-017 0.493798
vt -2.62178 -0.19685
vn -0.891794 -2.97043e-017 0.452442
v -0.0598609 9.16489e-018 -0.0425885
vt -2.62178 4.08369e-016
vt -2.98043 4.08369e-016
f 40/109/17 39/110/18 68/111/18 67/112/17 

vt -2.49571 -0.19685
vt -2.13705 -0.19685
vn -0.930287 -1.02186e-017 0.366832
v -0.0561251 9.16489e-018 -0.0342799
vt -2.13705 3.90666e-016
vt -2.49571 3.90666e-016
f 39/113/18 38/114/19 69/115/19 68/116/18 

vt -1.99057 -0.19685
vt -1.63192 -0.19685
vn -0.960584 1.50698e-031 0.27799
v -0.0531847 9.16489e-018 -0.0256576
vt -1.63192 3.60822e-016
vt -1.99057 3.60822e-016
f 38/117/19 37/118/20 70/119/20 69/120/19 

vt -1.46948 -0.19685
vt -1.11082 -0.19685
vn -0.982417 0 0.186699
v -0.0510657 9.16489e-018 -0.0167977
vt -1.11082 3.60822e-016
vt -1.46948 3.60822e-016
f 37/121/20 36/122/21 71/123/21 70/124/20 

vt -0.937015 -0.19685
vt -0.57836 -0.19685
vn -0.995595 0 0.0937624
v -0.0497869 9.16489e-018 -0.00777804
vt -0.57836 3.60822e-016
vt -0.937015 3.60822e-016
f 36/125/21 35/126/22 72/127/22 71/128/21 

vt -0.397878 -0.19685
vt -0.0392237 -0.19685
vn -1 0 5.80037e-016
v -0.0493593 9.16489e-018 0.00132175
vt -0.0392237 3.60822e-016
vt -0.397878 3.60822e-016
f 35/129/22 34/130/23 73/131/23 72/132/22 

vt 0.143184 -0.19685
vt 0.501839 -0.19685
vn -0.995595 1.57643e-031 -0.0937624
v -0.0497869 9.16489e-018 0.0104215
vt 0.501839 3.60822e-016
vt 0.143184 3.60822e-016
f 34/133/23 33/134/24 74/135/24 73/136/23 

vt 0.681405 -0.19685
vt 1.04006 -0.19685
vn -0.982417 2.79027e-033 -0.186699
v -0.0510657 9.16489e-018 0.0194412
vt 1.04006 3.60822e-016
vt 0.681405 3.60822e-016
f 33/137/24 32/138/25 75/139/25 74/140/24 

vt 1.21204 -0.19685
vt 1.5707 -0.19685
vn -0.960584 -1.54853e-031 -0.27799
v -0.0531847 9.16489e-018 0.0283011
vt 1.5707 3.60822e-016
vt 1.21204 3.60822e-016
f 32/141/25 31/142/26 76/143/26 75/144/25 

vt 1.73042 -0.19685
vt 2.08907 -0.19685
vn -0.930287 -1.02186e-017 -0.366832
v -0.0561251 9.16489e-018 0.0369234
vt 2.08907 3.60822e-016
vt 1.73042 3.60822e-016
f 31/145/26 30/146/27 77/147/27 76/148/26 

vt 2.23197 -0.19685
vt 2.59063 -0.19685
vn -0.891794 -2.97043e-017 -0.452442
v -0.0598609 9.16489e-018 0.045232
vt 2.59063 3.89794e-016
vt 2.23197 3.89794e-016
f 30/149/27 29/150/28 78/151/28 77/152/27 

vt 2.71228 -0.19685
vt 3.07093 -0.19685
vn -0.869577 -3.89283e-017 -0.493798
v -0.0643593 9.16489e-018 0.0531537
vt 3.07093 4.06369e-016
vt 2.71228 4.06369e-016
f 29/153/28 28/154/29 79/155/29 78/156/28 

vt -0.213118 -0.19685
vn -0.728117 -1.35709e-032 0.685453
vt 0.533698 -0.19685
v -0.0513569 9.16489e-018 0.0669654
vt 0.533698 3.60822e-016
vt -0.213118 3.60822e-016
f 28/157/30 27/158/30 80/159/30 79/160/30 

vt -3.05795 -0.19685
vn 0.492368 2.20418e-017 0.870387
vt -2.69821 -0.19685
vn 0.451109 -7.29059e-018 0.892469
v -0.0434038 9.16489e-018 0.0624664
vt -2.69821 3.32186e-016
vt -3.05795 3.32186e-016
f 27/161/31 26/162/32 81/163/32 80/164/31 

vt -2.56497 -0.19685
vt -2.20523 -0.19685
vn 0.36572 -1.83236e-017 0.930725
v -0.035065 9.16489e-018 0.0587305
vt -2.20523 4.17406e-016
vt -2.56497 4.17406e-016
f 26/165/32 25/166/33 82/167/33 81/168/32 

vt -2.05111 -0.19685
vt -1.69137 -0.19685
vn 0.277129 0 0.960833
v -0.0264136 9.16489e-018 0.0557903
vt -1.69137 3.60822e-016
vt -2.05111 3.60822e-016
f 25/169/33 24/170/34 83/171/34 82/172/33 

vt -1.52087 -0.19685
vt -1.16113 -0.19685
vn 0.186111 0 0.982529
v -0.0175252 9.16489e-018 0.0536716
vt -1.16113 3.60822e-016
vt -1.52087 3.60822e-016
f 24/173/34 23/174/35 84/175/35 83/176/34 

vt -0.978885 -0.19685
vt -0.619145 -0.19685
vn 0.0934649 0 0.995623
v -0.00847776 9.16489e-018 0.0523929
vt -0.619145 3.60822e-016
vt -0.978885 3.60822e-016
f 23/177/35 22/178/36 85/179/36 84/180/35 

vt -0.429906 -0.19685
vt -0.0701659 -0.19685
vn -4.1679e-017 0 1
v 0.000649631 9.16489e-018 0.0519654
vt -0.0701659 3.60822e-016
vt -0.429906 3.60822e-016
f 22/181/36 21/182/37 86/183/37 85/184/36 

vt 0.121262 -0.19685
vt 0.481002 -0.19685
vn -0.0934649 0 0.995623
v 0.00977702 9.16489e-018 0.0523929
vt 0.481002 3.60822e-016
vt 0.121262 3.60822e-016
f 21/185/37 20/186/38 87/187/38 86/188/37 

vt 0.669793 -0.19685
vt 1.02953 -0.19685
vn -0.186111 0 0.982529
v 0.0188245 9.16489e-018 0.0536716
vt 1.02953 3.60822e-016
vt 0.669793 3.60822e-016
f 20/189/38 19/190/39 88/191/39 87/192/38 

vt 1.21089 -0.19685
vt 1.57063 -0.19685
vn -0.277129 -1.44208e-017 0.960833
v 0.0277129 9.16489e-018 0.0557903
vt 1.57063 3.60822e-016
vt 1.21089 3.60822e-016
f 19/193/39 18/194/40 89/195/40 88/196/39 

vt 1.7398 -0.19685
vt 2.09954 -0.19685
vn -0.36572 -1.44208e-017 0.930725
v 0.0363643 9.16489e-018 0.0587305
vt 2.09954 4.10623e-016
vt 1.7398 4.10623e-016
f 18/197/40 17/198/41 90/199/41 89/200/40 

vt 2.25191 -0.19685
vt 2.61165 -0.19685
vn -0.451109 1.45302e-031 0.892469
v 0.044703 9.16489e-018 0.0624664
vt 2.61165 3.60822e-016
vt 2.25191 3.60822e-016
f 17/201/41 16/202/42 91/203/42 90/204/41 

vt 2.74273 -0.19685
vt 3.10247 -0.19685
vn -0.492368 0 0.870387
v 0.0526561 9.16489e-018 0.0669654
vt 3.10247 3.60822e-016
vt 2.74273 3.60822e-016
f 16/205/42 15/206/43 92/207/43 91/208/42 

vt -0.291329 -0.19685
vn 0.684061 2.32022e-031 0.729425
vt 0.426682 -0.19685
v 0.065959 9.16489e-018 0.0544898
vt 0.426682 3.60822e-016
vt -0.291329 3.60822e-016
f 15/209/44 14/210/44 93/211/44 92/212/44 

vt -3.14024 -0.19685
vn 0.872639 -2.18627e-017 -0.488366
vt -2.77743 -0.19685
vn 0.894344 -2.91125e-017 -0.447379
v 0.0614585 9.16489e-018 0.0464481
vt -2.77743 3.8746e-016
vt -3.14024 3.8746e-016
f 14/213/45 13/214/46 94/215/46 93/216/45 

vt -2.65262 -0.19685
vt -2.28981 -0.19685
vn 0.931941 -1.81694e-017 -0.362609
v 0.0577223 9.16489e-018 0.0380241
vt -2.28981 4.14199e-016
vt -2.65262 4.14199e-016
f 13/217/46 12/218/47 95/219/47 94/220/46 

vt -2.14375 -0.19685
vt -1.78094 -0.19685
vn 0.961524 0 -0.274721
v 0.0547826 9.16489e-018 0.0292903
vt -1.78094 3.60822e-016
vt -2.14375 3.60822e-016
f 12/221/47 11/222/48 96/223/48 95/224/47 

vt -1.61801 -0.19685
vt -1.2552 -0.19685
vn 0.982838 0 -0.184471
v 0.0526645 9.16489e-018 0.0203216
vt -1.2552 3.60822e-016
vt -1.61801 3.60822e-016
f 11/225/48 10/226/49 97/227/49 96/228/48 

vt -1.07991 -0.19685
vt -0.717104 -0.19685
vn 0.9957 0 -0.0926336
v 0.0513863 9.16489e-018 0.0111953
vt -0.717104 3.60822e-016
vt -1.07991 3.60822e-016
f 10/229/49 9/230/50 98/231/50 97/232/49 

vt -0.534089 -0.19685
vt -0.17128 -0.19685
vn 1 0 2.08391e-017
v 0.050959 9.16489e-018 0.00198984
vt -0.17128 3.60822e-016
vt -0.534089 3.60822e-016
f 9/233/50 8/234/51 99/235/51 98/236/50 

vt 0.0147676 -0.19685
vt 0.377577 -0.19685
vn 0.9957 0 0.0926336
v 0.0513863 9.16489e-018 -0.00721562
vt 0.377577 3.60822e-016
vt 0.0147676 3.60822e-016
f 8/237/51 7/238/52 100/239/52 99/240/51 

vt 0.561938 -0.19685
vt 0.924747 -0.19685
vn 0.982838 0 0.184471
v 0.0526645 9.16489e-018 -0.0163419
vt 0.924747 3.60822e-016
vt 0.561938 3.60822e-016
f 7/241/52 6/242/53 101/243/53 100/244/52 

vt 1.10272 -0.19685
vt 1.46553 -0.19685
vn 0.961524 0 0.274721
v 0.0547826 9.16489e-018 -0.0253106
vt 1.46553 3.60822e-016
vt 1.10272 3.60822e-016
f 6/245/53 5/246/54 102/247/54 101/248/53 

vt 1.63245 -0.19685
vt 1.99526 -0.19685
vn 0.931941 0 0.362609
v 0.0577223 9.16489e-018 -0.0340445
vt 1.99526 3.60822e-016
vt 1.63245 3.60822e-016
f 5/249/54 4/250/55 103/251/55 102/252/54 

vt 2.14659 -0.19685
vt 2.5094 -0.19685
vn 0.894344 0 0.447379
v 0.0614585 9.16489e-018 -0.0424685
vt 2.5094 3.60822e-016
vt 2.14659 3.60822e-016
f 4/253/55 3/254/56 104/255/56 103/256/55 

vt 2.6407 -0.19685
vt 3.00351 -0.19685
vn 0.872639 0 0.488366
vt 3.00351 3.60822e-016
vt 2.6407 3.60822e-016
f 3/257/56 2/258/57 54/259/57 104/260/56 

vt 2.59681 1.98859
vn 0 1 -0
vt 2.07308 2.5005
vt 1.75996 2.32337
vt 1.43167 2.17629
vt 1.09106 2.06053
vt 0.741122 1.97712
vt 0.384922 1.92678
vt 0.025576 1.90995
vt -0.33377 1.92678
vt -0.68997 1.97712
vt -1.03991 2.06053
vt -1.38051 2.17629
vt -1.70881 2.32337
vt -2.02192 2.5005
vt -2.53383 1.98859
vt -2.35673 1.67671
vt -2.20965 1.3496
vt -2.09389 1.01014
vt -2.01046 0.661325
vt -1.96011 0.306222
vt -1.94328 -0.0520375
vt -1.96011 -0.410297
vt -2.01046 -0.7654
vt -2.09389 -1.11422
vt -2.20965 -1.45368
vt -2.35673 -1.78079
vt -2.53383 -2.09266
vt -2.02192 -2.63643
vt -1.70881 -2.45931
vt -1.38051 -2.31223
vt -1.03991 -2.19647
vt -0.68997 -2.11305
vt -0.33377 -2.06271
vt 0.025576 -2.04588
vt 0.384922 -2.06271
vt 0.741122 -2.11305
vt 1.09106 -2.19647
vt 1.43167 -2.31223
vt 1.75996 -2.45931
vt 2.07308 -2.63643
vt 2.59681 -2.14527
vt 2.41963 -1.82867
vt 2.27253 -1.49701
vt 2.15679 -1.15316
vt 2.0734 -0.800063
vt 2.02308 -0.44076
vt 2.00626 -0.0783402
vt 2.02308 0.284079
vt 2.0734 0.643383
vt 2.15679 0.996479
vt 2.27253 1.34033
vt 2.41963 1.67199
f 54/261/58 53/262/58 55/263/58 56/264/58 57/265/58 58/266/58 59/267/58 60/268/58 61/269/58 62/270/58 63/271/58 64/272/58 65/273/58 66/274/58 67/275/58 68/276/58 69/277/58 70/278/58 71/279/58 72/280/58 73/281/58 74/282/58 75/283/58 76/284/58 77/285/58 78/286/58 79/287/58 80/288/58 81/289/58 82/290/58 83/291/58 84/292/58 85/293/58 86/294/58 87/295/58 88/296/58 89/297/58 90/298/58 91/299/58 92/300/58 93/301/58 94/302/58 95/303/58 96/304/58 97/305/58 98/306/58 99/307/58 100/308/58 101/309/58 102/310/58 103/311/58 104/312/58 

