# Alias OBJ Model File
# Exported from SketchUp, (c) 2000-2006 Google, Inc.
# File units = meters

mtllib upper_leg.mtl

g Mesh1 Model

usemtl M_0137_Black
v -0.0212852 0.000894292 0.0126702
vt 0.837999 -0.498828
vn 0 -1 -0
v -0.0210871 0.000894292 0.0337322
vt 0.830199 -1.32804
v -0.0213253 0.000894292 0.0232025
vt 0.839578 -0.913485
f 1/1/1 2/2/1 3/3/1

v -0.0209668 0.000894292 0.00214271
vt 0.825463 -0.0843585
f 2/2/1 1/1/1 4/4/1

vt 0.109275 0.0352083
vn -0.999056 0 -0.0434366
vt 0.523934 0.0352083
vn -0.999855 0 -0.0170211
v -0.0212852 0.00589429 0.0126702
vt 0.523934 0.232059
v -0.0209668 0.00589429 0.00214271
vt 0.109275 0.232059
f 4/5/2 1/6/3 5/7/3 6/8/2 

vt 0.502016 0.0352083
vt 0.916675 0.0352083
vn -0.999956 0 0.00940629
v -0.0213253 0.00589429 0.0232025
vt 0.916675 0.232059
vt 0.502016 0.232059
f 1/9/3 3/10/4 7/11/4 5/12/3 

vt 0.894261 0.0352083
vt 1.30892 0.0352083
vn -0.999358 0 0.0358271
v -0.0210871 0.00589429 0.0337322
vt 1.30892 0.232059
vt 0.894261 0.232059
f 3/13/4 2/14/5 8/15/5 7/16/4 

vt 1.28574 0.0352083
v -0.0205707 0.000894292 0.0442518
vt 1.7004 0.0352083
vn -0.998062 0 0.0622229
v -0.0205707 0.00589429 0.0442518
vt 1.7004 0.232059
vt 1.28574 0.232059
f 2/17/5 9/18/6 10/19/6 8/20/5 

vt 0.809869 -1.7422
f 2/2/1 4/4/1 9/21/1

v -0.0203703 0.000894292 -0.00837274
vt 0.80198 0.329635
f 9/21/1 4/4/1 11/22/1

vt -0.283687 0.0352083
vn -0.998395 0 -0.0566341
vt 0.130972 0.0352083
vt 0.130972 0.232059
v -0.0203703 0.00589429 -0.00837274
vt -0.283687 0.232059
f 11/23/7 4/24/2 6/25/2 12/26/7 

vt -0.825463 -0.0843585
vn 0 1 -0
vt -0.809869 -1.7422
vt -0.80198 0.329635
f 6/27/8 10/28/8 12/29/8

vt -0.830199 -1.32804
f 6/27/8 8/30/8 10/28/8

vt -0.837999 -0.498828
f 5/31/8 8/30/8 6/27/8

vt -0.839578 -0.913485
f 8/30/8 5/31/8 7/32/8

v -0.0197765 0.00589429 0.0547542
vt -0.778601 -2.15568
f 12/29/8 10/28/8 13/33/8

vt 1.67617 0.0352083
v -0.0197765 0.000894292 0.0547542
vt 2.09083 0.0352083
vn -0.996069 0 0.0885752
vt 2.09083 0.232059
vt 1.67617 0.232059
f 9/34/6 14/35/9 13/36/9 10/37/6 

vt 0.778601 -2.15568
f 9/21/1 11/22/1 14/38/1

v -0.0177596 0.000894292 -0.0115304
vt 0.699197 0.453954
f 14/38/1 11/22/1 15/39/1

vt 0.0956563 0.0352083
vn -0.717324 0 -0.69674
vt 0.256962 0.0352083
vn -0.770706 0 -0.63719
vt 0.256962 0.232059
v -0.0177596 0.00589429 -0.0115304
vt 0.0956563 0.232059
f 15/40/10 11/41/11 12/42/11 16/43/10 

vt -0.699197 0.453954
f 12/29/8 13/33/8 16/44/8

v -0.018705 0.00589429 0.0652319
vt -0.736418 -2.56819
f 16/44/8 13/33/8 17/45/8

vt 2.06529 0.0352083
v -0.018705 0.000894292 0.0652319
vt 2.47995 0.0352083
vn -0.993381 0 0.114866
vt 2.47995 0.232059
vt 2.06529 0.232059
f 14/46/9 18/47/12 17/48/12 13/49/9 

vt 0.736418 -2.56819
f 14/38/1 15/39/1 18/50/1

v -0.0173571 0.000894292 0.0756776
vt 0.683349 -2.97943
f 18/50/1 15/39/1 19/51/1

v -0.0146792 0.000894292 -0.0142319
vt 0.577923 0.560312
f 19/51/1 15/39/1 20/52/1

vt 0.0650582 0.0352083
vn -0.597166 0 -0.802118
vt 0.226363 0.0352083
vt 0.226363 0.232059
v -0.0146792 0.00589429 -0.0142319
vt 0.0650582 0.232059
f 20/53/13 15/54/10 16/55/10 21/56/13 

v -0.0173571 0.00589429 0.0756776
vt -0.683349 -2.97943
vt -0.577923 0.560312
f 16/44/8 22/57/8 21/58/8

f 16/44/8 17/45/8 22/57/8

vt 2.45282 0.0352083
vt 2.86748 0.0352083
vn -0.989999 0 0.141076
vt 2.86748 0.232059
vt 2.45282 0.232059
f 18/59/12 19/60/14 22/61/14 17/62/12 

vt 2.83849 0.0352083
v -0.0157336 0.000894292 0.0860841
vt 3.25315 0.0352083
vn -0.985925 0 0.167188
v -0.0157336 0.00589429 0.0860841
vt 3.25315 0.232059
vt 2.83849 0.232059
f 19/63/14 23/64/15 24/65/15 22/66/14 

vt 0.619431 -3.38914
f 19/51/1 20/52/1 23/67/1

v -0.0138356 0.000894292 0.096444
vt 0.544709 -3.79701
f 23/67/1 20/52/1 25/68/1

v -0.0112078 0.000894292 -0.0164082
vt 0.441253 0.64599
f 25/68/1 20/52/1 26/69/1

vt 0.0307383 0.0352083
vn -0.461755 0 -0.887008
vt 0.192044 0.0352083
vt 0.192044 0.232059
v -0.0112078 0.00589429 -0.0164082
vt 0.0307383 0.232059
f 26/70/16 20/71/13 21/72/13 27/73/16 

v -0.0138356 0.00589429 0.096444
vt -0.544709 -3.79701
vt -0.441253 0.64599
f 21/58/8 28/74/8 27/75/8

vt -0.619431 -3.38914
f 21/58/8 24/76/8 28/74/8

f 21/58/8 22/57/8 24/76/8

vt 3.22204 0.0352083
vt 3.63669 0.0352083
vn -0.981163 0 0.193183
vt 3.63669 0.232059
vt 3.22204 0.232059
f 23/77/15 25/78/17 28/79/17 24/80/15 

vt 3.60319 0.0352083
v -0.0116646 0.000894292 0.10675
vt 4.01784 0.0352083
vn -0.975715 0 0.219043
v -0.0116646 0.00589429 0.10675
vt 4.01784 0.232059
vt 3.60319 0.232059
f 25/81/17 29/82/18 30/83/18 28/84/17 

vt 0.459235 -4.20276
f 25/68/1 26/69/1 29/85/1

v -0.00922195 0.000894292 0.116995
vt 0.363069 -4.60612
f 29/85/1 26/69/1 31/86/1

v -0.0090913 0.000894292 0.0611396
vt 0.357925 -2.40707
f 31/86/1 26/69/1 32/87/1

v -0.00743407 0.000894292 -0.0180036
vt 0.29268 0.708802
f 32/87/1 26/69/1 33/88/1

vt -0.0064268 0.0352083
vn -0.314549 0 -0.949241
vt 0.154878 0.0352083
vt 0.154878 0.232059
v -0.00743407 0.00589429 -0.0180036
vt -0.0064268 0.232059
f 33/89/19 26/90/16 27/91/16 34/92/19 

v -0.0090913 0.00589429 0.0611396
vt -0.357925 -2.40707
vt -0.29268 0.708802
f 27/75/8 35/93/8 34/94/8

v -0.00922195 0.00589429 0.116995
vt -0.363069 -4.60612
f 27/75/8 36/95/8 35/93/8

vt -0.459235 -4.20276
f 27/75/8 30/96/8 36/95/8

f 27/75/8 28/74/8 30/96/8

vt 3.98167 0.0352083
vt 4.39633 0.0352083
vn -0.972736 0 0.231916
vt 4.39633 0.232059
vt 3.98167 0.232059
f 29/97/18 31/98/20 36/99/20 30/100/18 

vt -0.363069 0.0352083
vn 0 0 1
v 0.010778 0.000894292 0.116995
vt 0.424333 0.0352083
v 0.010778 0.00589429 0.116995
vt 0.424333 0.232059
vt -0.363069 0.232059
f 31/101/21 37/102/21 38/103/21 36/104/21 

v -0.0090913 0.000894292 0.10114
vt 0.357925 -3.98188
vt -0.424333 -4.60612
f 31/86/1 39/105/1 37/106/1

f 39/105/1 31/86/1 32/87/1

vt -3.98188 0.0352083
vn 1 0 -0
vt -2.40707 0.0352083
vt -2.40707 0.232059
v -0.0090913 0.00589429 0.10114
vt -3.98188 0.232059
f 39/107/22 32/108/22 35/109/22 40/110/22 

vt -0.357925 0.0352083
v 0.0109087 0.000894292 0.0611396
vt 0.429476 0.0352083
v 0.0109087 0.00589429 0.0611396
vt 0.429476 0.232059
vt -0.357925 0.232059
f 32/111/21 41/112/21 42/113/21 35/114/21 

vt -0.429476 -2.40707
f 32/87/1 33/88/1 41/115/1

v -0.00345433 0.000894292 -0.0189774
vt 0.135997 0.747143
f 41/115/1 33/88/1 43/116/1

vt -0.0454878 0.0352083
vn -0.159309 0 -0.987229
vt 0.115817 0.0352083
vt 0.115817 0.232059
v -0.00345433 0.00589429 -0.0189774
vt -0.0454878 0.232059
f 43/117/23 33/118/19 34/119/19 44/120/23 

vt 0.429476 -2.40707
vt -0.135997 0.747143
f 34/94/8 42/121/8 44/122/8

f 34/94/8 35/93/8 42/121/8

v 0.000629718 0.00589429 -0.0193048
vt 0.0247921 0.760032
f 44/122/8 42/121/8 45/123/8

v 0.00471377 0.00589429 -0.0189774
vt 0.185581 0.747143
f 45/123/8 42/121/8 46/124/8

v 0.0086935 0.00589429 -0.0180036
vt 0.342264 0.708802
f 46/124/8 42/121/8 47/125/8

v 0.0124673 0.00589429 -0.0164082
vt 0.490837 0.64599
f 47/125/8 42/121/8 48/126/8

v 0.0131964 0.00589429 0.106747
vt 0.519544 -4.20262
f 42/121/8 49/127/8 48/126/8

v 0.0109087 0.00589429 0.10114
vt 0.429476 -3.98188
f 50/128/8 49/127/8 42/121/8

vt 0.424333 -4.60612
f 50/128/8 38/129/8 49/127/8

vt -0.357925 -3.98188
f 40/130/8 38/129/8 50/128/8

f 38/129/8 40/130/8 36/95/8

f 35/93/8 36/95/8 40/130/8

v 0.0109087 0.000894292 0.10114
vt -0.429476 0.0352083
vn 0 0 -1
vt 0.357925 0.0352083
vt 0.357925 0.232059
vt -0.429476 0.232059
f 51/131/24 39/132/24 40/133/24 50/134/24 

vt -0.429476 -3.98188
f 37/106/1 39/105/1 51/135/1

v 0.0131964 0.000894292 0.106747
vt -0.519544 -4.20262
f 37/106/1 51/135/1 52/136/1

v 0.0124673 0.000894292 -0.0164082
vt -0.490837 0.64599
f 52/136/1 51/135/1 53/137/1

f 41/115/1 53/137/1 51/135/1

v 0.0086935 0.000894292 -0.0180036
vt -0.342264 0.708802
f 41/115/1 54/138/1 53/137/1

v 0.00471377 0.000894292 -0.0189774
vt -0.185581 0.747143
f 41/115/1 55/139/1 54/138/1

v 0.000629718 0.000894292 -0.0193048
vt -0.0247921 0.760032
f 41/115/1 56/140/1 55/139/1

f 41/115/1 43/116/1 56/140/1

vt -0.085447 0.0352083
vn 0 0 -1
vt 0.0758582 0.0352083
vt 0.0758582 0.232059
vt -0.085447 0.232059
f 56/141/25 43/142/23 44/143/23 45/144/25 

vt -0.125284 0.0352083
vn 0.159309 0 -0.987229
vt 0.0360215 0.0352083
vt 0.0360215 0.232059
vt -0.125284 0.232059
f 55/145/26 56/146/25 45/147/25 46/148/26 

vt -0.163981 0.0352083
vn 0.314549 0 -0.949241
vt -0.00267527 0.0352083
vt -0.00267527 0.232059
vt -0.163981 0.232059
f 54/149/27 55/150/26 46/151/26 47/152/27 

vt -0.200549 0.0352083
vn 0.461755 0 -0.887008
vt -0.0392436 0.0352083
vt -0.0392436 0.232059
vt -0.200549 0.232059
f 53/153/28 54/154/27 47/155/27 48/156/28 

v 0.0159387 0.000894292 -0.0142319
vt -0.234055 0.0352083
vn 0.597166 0 -0.802118
vt -0.0727495 0.0352083
vt -0.0727495 0.232059
v 0.0159387 0.00589429 -0.0142319
vt -0.234055 0.232059
f 57/157/29 53/158/28 48/159/28 58/160/29 

vt -0.627507 0.560312
f 52/136/1 53/137/1 57/161/1

v 0.0153431 0.000894292 0.0964376
vt -0.604058 -3.79676
f 52/136/1 57/161/1 59/162/1

v 0.0172165 0.000894292 0.0860754
vt -0.677814 -3.38879
f 59/162/1 57/161/1 60/163/1

v 0.0190191 0.000894292 -0.0115304
vt -0.748782 0.453954
f 60/163/1 57/161/1 61/164/1

vt -0.263642 0.0352083
vn 0.717324 0 -0.69674
vt -0.102337 0.0352083
vt -0.102337 0.232059
v 0.0190191 0.00589429 -0.0115304
vt -0.263642 0.232059
f 61/165/30 57/166/29 58/167/29 62/168/30 

vt 0.627507 0.560312
v 0.0172165 0.00589429 0.0860754
vt 0.677814 -3.38879
vt 0.748782 0.453954
f 58/169/8 63/170/8 62/171/8

v 0.0153431 0.00589429 0.0964376
vt 0.604058 -3.79676
f 58/169/8 64/172/8 63/170/8

f 58/169/8 49/127/8 64/172/8

f 48/126/8 49/127/8 58/169/8

vt -4.00846 0.0352083
vn 0.976221 0 0.216777
vt -3.59389 0.0352083
vn 0.98161 0 0.190899
vt -3.59389 0.232059
vt -4.00846 0.232059
f 52/173/31 59/174/32 64/175/32 49/176/31 

vt -3.62872 0.0352083
vt -3.21414 0.0352083
vn 0.986312 0 0.164888
vt -3.21414 0.232059
vt -3.62872 0.232059
f 59/177/32 60/178/33 63/179/33 64/180/32 

vt -3.24658 0.0352083
v 0.0188154 0.000894292 0.0756673
vt -2.83201 0.0352083
vn 0.990326 0 0.138762
v 0.0188154 0.00589429 0.0756673
vt -2.83201 0.232059
vt -3.24658 0.232059
f 60/181/33 65/182/34 66/183/34 63/184/33 

vt -0.740762 -2.97903
f 60/163/1 61/164/1 65/185/1

v 0.0201386 0.000894292 0.0652206
vt -0.792858 -2.56774
f 65/185/1 61/164/1 67/186/1

v 0.0216297 0.000894292 -0.00837274
vt -0.851564 0.329635
f 67/186/1 61/164/1 68/187/1

vt -0.288556 0.0352083
vn 0.770706 0 -0.63719
vt -0.127251 0.0352083
vt -0.127251 0.232059
v 0.0216297 0.00589429 -0.00837274
vt -0.288556 0.232059
f 68/188/35 61/189/30 62/190/30 69/191/35 

v 0.0201386 0.00589429 0.0652206
vt 0.792858 -2.56774
vt 0.851564 0.329635
f 62/171/8 70/192/8 69/193/8

vt 0.740762 -2.97903
f 62/171/8 66/194/8 70/192/8

f 62/171/8 63/170/8 66/194/8

vt -2.86233 0.0352083
vt -2.44775 0.0352083
vn 0.993647 0 0.112538
vt -2.44775 0.232059
vt -2.86233 0.232059
f 65/195/34 67/196/36 70/197/36 66/198/34 

vt -2.47622 0.0352083
v 0.0211853 0.000894292 0.0547425
vt -2.06164 0.0352083
vn 0.996275 0 0.086236
v 0.0211853 0.00589429 0.0547425
vt -2.06164 0.232059
vt -2.47622 0.232059
f 67/199/36 71/200/37 72/201/37 70/202/36 

vt -0.834065 -2.15522
f 67/186/1 68/187/1 71/203/1

v 0.0219546 0.000894292 0.0442405
vt -0.864355 -1.74175
f 71/203/1 68/187/1 73/204/1

v 0.0222511 0.000894292 0.00213911
vt -0.876027 -0.0842169
f 73/204/1 68/187/1 74/205/1

vt -0.135763 0.0352083
vn 0.99895 0 -0.0458095
vt 0.278812 0.0352083
vn 0.998258 0 -0.0590082
vt 0.278812 0.232059
v 0.0222511 0.00589429 0.00213911
vt -0.135763 0.232059
f 74/206/38 68/207/39 69/208/39 75/209/38 

v 0.0219546 0.00589429 0.0442405
vt 0.864355 -1.74175
vt 0.876027 -0.0842169
f 69/193/8 76/210/8 75/211/8

vt 0.834065 -2.15522
f 69/193/8 72/212/8 76/210/8

f 69/193/8 70/192/8 72/212/8

vt -2.08852 0.0352083
vt -1.67394 0.0352083
vn 0.998206 0 0.0598737
vt -1.67394 0.232059
vt -2.08852 0.232059
f 71/213/37 73/214/40 76/215/40 72/216/37 

vt -1.69951 0.0352083
v 0.0224461 0.000894292 0.0337217
vt -1.28493 0.0352083
vn 0.99944 0 0.0334695
v 0.0224461 0.00589429 0.0337217
vt -1.28493 0.232059
vt -1.69951 0.232059
f 73/217/40 77/218/41 78/219/41 76/220/40 

vt -0.883705 -1.32763
f 73/204/1 74/205/1 77/221/1

v 0.0225944 0.000894292 0.0126637
vt -0.889543 -0.498571
f 77/221/1 74/205/1 79/222/1

vt -0.527308 0.0352083
vn 0.999812 0 -0.0193906
vt -0.112733 0.0352083
vt -0.112733 0.232059
v 0.0225944 0.00589429 0.0126637
vt -0.527308 0.232059
f 79/223/42 74/224/38 75/225/38 80/226/42 

vt 0.883705 -1.32763
vt 0.889543 -0.498571
f 75/211/8 78/227/8 80/228/8

f 75/211/8 76/210/8 78/227/8

v 0.0226594 0.00589429 0.0231937
vt 0.892103 -0.913138
f 80/228/8 78/227/8 81/229/8

vt -1.30945 0.0352083
v 0.0226594 0.000894292 0.0231937
vt -0.894879 0.0352083
vn 0.999975 0 0.0070419
vt -0.894879 0.232059
vt -1.30945 0.232059
f 77/230/41 82/231/43 81/232/43 78/233/41 

vt -0.892103 -0.913138
f 77/221/1 79/222/1 82/234/1

vt -0.918629 0.0352083
vt -0.504054 0.0352083
vt -0.504054 0.232059
vt -0.918629 0.232059
f 82/235/43 79/236/42 80/237/42 81/238/43 

vt -4.38555 0.0352083
vn 0.973271 0 0.229661
vt -3.97097 0.0352083
vt -3.97097 0.232059
vt -4.38555 0.232059
f 37/239/44 52/240/31 49/241/31 38/242/44 

vt 2.40707 0.0352083
vn -1 0 -0
vt 3.98188 0.0352083
vt 3.98188 0.232059
vt 2.40707 0.232059
f 41/243/45 51/244/45 50/245/45 42/246/45 

