# Created by FreeCAD <http://www.freecadweb.org>
v -0.000000 175.000000 0.000000
v 0.000000 23.771507 50.000000
v -0.000000 175.000000 50.000000
v 0.000000 23.771507 0.000000
v 2.630494 19.368616 50.000000
v 1.008257 20.760529 50.000000
v 1.744124 19.976870 50.000000
v 0.115562 22.702738 50.000000
v 0.456907 21.683371 50.000000
v 3.626394 18.963888 50.000000
v 70.000000 -0.000000 50.000000
v 149.884445 22.702738 50.000000
v 148.991745 20.760529 50.000000
v 149.543091 21.683371 50.000000
v 148.255875 19.976870 50.000000
v 147.369507 19.368616 50.000000
v 150.000000 23.771507 50.000000
v 80.000000 -0.000000 50.000000
v 146.373611 18.963888 50.000000
v 0.495156 177.169418 50.000000
v 0.125360 176.112610 50.000000
v 1.882551 178.909164 50.000000
v 1.090843 178.117447 50.000000
v 2.830581 179.504837 50.000000
v 5.000000 180.000000 50.000000
v 3.887395 179.874634 50.000000
v 150.000000 175.000000 50.000000
v 145.000000 180.000000 50.000000
v 147.169418 179.504837 50.000000
v 146.112610 179.874634 50.000000
v 149.504837 177.169418 50.000000
v 149.874634 176.112610 50.000000
v 148.909164 178.117447 50.000000
v 148.117447 178.909164 50.000000
v 0.115562 22.702738 0.000000
v 0.456907 21.683371 0.000000
v 1.008257 20.760529 0.000000
v 1.744124 19.976870 0.000000
v 2.630494 19.368616 0.000000
v 3.626394 18.963888 0.000000
v 0.125360 176.112610 0.000000
v 0.495156 177.169418 0.000000
v 1.090843 178.117447 0.000000
v 1.882551 178.909164 0.000000
v 2.830581 179.504837 0.000000
v 3.887395 179.874634 0.000000
v 5.000000 180.000000 0.000000
v 70.000000 0.000000 -0.000000
v 146.373611 18.963888 -0.000000
v 148.255875 19.976870 0.000000
v 147.369507 19.368616 0.000000
v 148.991745 20.760529 0.000000
v 149.884445 22.702738 0.000000
v 149.543091 21.683371 0.000000
v 80.000000 0.000000 0.000000
v 150.000000 23.771507 0.000000
v 145.000000 180.000000 0.000000
v 150.000000 175.000000 0.000000
v 146.112610 179.874634 0.000000
v 147.169418 179.504837 0.000000
v 149.504837 177.169418 0.000000
v 149.874634 176.112610 0.000000
v 148.117447 178.909164 0.000000
v 148.909164 178.117447 0.000000
v 70.000000 -0.000000 55.000000
v 70.000000 5.000000 60.000000
v 70.000000 0.000000 50.000000
v 70.000000 90.000000 50.000000
v 70.000000 90.000000 60.000000
v 80.000000 0.000000 50.000000
v 80.000000 -0.000000 55.000000
v 80.000000 5.000000 60.000000
v 80.000000 90.000000 50.000000
v 80.000000 90.000000 60.000000
vn -1.000000 -0.000000 0.000000
vn -1.000000 -0.000000 0.000000
vn 0.000000 0.000000 1.000000
vn 0.000000 0.000000 1.000000
vn 0.000000 0.000000 1.000000
vn 0.000000 0.000000 1.000000
vn 0.000000 0.000000 1.000000
vn 0.000000 0.000000 1.000000
vn 0.000000 0.000000 1.000000
vn 0.000000 0.000000 1.000000
vn 0.000000 0.000000 1.000000
vn 0.000000 0.000000 1.000000
vn 0.000000 0.000000 1.000000
vn 0.000000 0.000000 1.000000
vn 0.000000 0.000000 1.000000
vn 0.000000 0.000000 1.000000
vn 0.000000 0.000000 1.000000
vn 0.000000 0.000000 1.000000
vn 0.000000 0.000000 1.000000
vn 0.000000 0.000000 1.000000
vn 0.000000 0.000000 1.000000
vn 0.000000 0.000000 1.000000
vn 0.000000 0.000000 1.000000
vn 0.000000 0.000000 1.000000
vn 0.000000 0.000000 1.000000
vn 0.000000 0.000000 1.000000
vn 0.000000 0.000000 1.000000
vn 0.000000 0.000000 1.000000
vn 0.000000 0.000000 1.000000
vn 0.000000 0.000000 1.000000
vn 0.000000 0.000000 1.000000
vn 0.000000 0.000000 1.000000
vn -0.994205 -0.107500 -0.000000
vn -0.994205 -0.107500 0.000000
vn -0.948248 -0.317530 -0.000000
vn -0.948248 -0.317530 0.000000
vn -0.858458 -0.512883 -0.000000
vn -0.858458 -0.512883 0.000000
vn -0.728986 -0.684529 -0.000000
vn -0.728986 -0.684529 0.000000
vn -0.565817 -0.824531 -0.000000
vn -0.565817 -0.824531 0.000000
vn -0.376492 -0.926420 -0.000000
vn -0.376492 -0.926420 0.000000
vn -0.993712 0.111964 0.000000
vn -0.993712 0.111964 0.000000
vn -0.943883 0.330281 0.000000
vn -0.943883 0.330281 0.000000
vn -0.846724 0.532033 0.000000
vn -0.846724 0.532033 0.000000
vn -0.707111 0.707103 0.000000
vn -0.707111 0.707103 0.000000
vn -0.532023 0.846730 0.000000
vn -0.532023 0.846730 0.000000
vn -0.330280 0.943883 0.000000
vn -0.330280 0.943883 0.000000
vn -0.111970 0.993712 0.000000
vn -0.111970 0.993712 0.000000
vn 0.000000 0.000000 -1.000000
vn 0.000000 0.000000 -1.000000
vn 0.000000 0.000000 -1.000000
vn 0.000000 0.000000 -1.000000
vn 0.000000 0.000000 -1.000000
vn -0.000000 -0.000000 -1.000000
vn 0.000000 -0.000000 -1.000000
vn 0.000000 0.000000 -1.000000
vn 0.000000 0.000000 -1.000000
vn 0.000000 -0.000000 -1.000000
vn -0.000000 0.000000 -1.000000
vn 0.000000 -0.000000 -1.000000
vn -0.000000 0.000000 -1.000000
vn 0.000000 -0.000000 -1.000000
vn 0.000000 -0.000000 -1.000000
vn 0.000000 -0.000000 -1.000000
vn 0.000000 -0.000000 -1.000000
vn 0.000000 -0.000000 -1.000000
vn 0.000000 -0.000000 -1.000000
vn -0.000000 -0.000000 -1.000000
vn 0.000000 -0.000000 -1.000000
vn 0.000000 0.000000 -1.000000
vn -0.000000 0.000000 -1.000000
vn 0.000000 -0.000000 -1.000000
vn -0.000000 -0.000000 -1.000000
vn 0.000000 0.000000 -1.000000
vn -0.000000 -0.000000 -1.000000
vn 0.000000 0.000000 -1.000000
vn -0.000000 -0.000000 -1.000000
vn 0.000000 0.000000 -1.000000
vn -0.274721 -0.961524 -0.000000
vn -0.274721 -0.961524 0.000000
vn 0.000000 1.000000 0.000000
vn 0.000000 1.000000 0.000000
vn 0.000000 -1.000000 -0.000000
vn 0.000000 -1.000000 -0.000000
vn 0.111969 0.993712 0.000000
vn 0.111969 0.993712 0.000000
vn 0.330282 0.943882 0.000000
vn 0.330282 0.943882 0.000000
vn 0.532024 0.846730 0.000000
vn 0.532024 0.846730 0.000000
vn 0.707107 0.707107 0.000000
vn 0.707107 0.707107 0.000000
vn 0.846730 0.532024 0.000000
vn 0.846730 0.532024 0.000000
vn 0.943882 0.330282 0.000000
vn 0.943882 0.330282 0.000000
vn 0.993712 0.111969 0.000000
vn 0.993712 0.111969 0.000000
vn 0.274721 -0.961524 -0.000000
vn 0.274721 -0.961524 0.000000
vn 1.000000 -0.000000 0.000000
vn 1.000000 0.000000 0.000000
vn 0.994206 -0.107493 0.000000
vn 0.948246 -0.317538 0.000000
vn 0.994206 -0.107493 0.000000
vn 0.948246 -0.317538 0.000000
vn 0.858460 -0.512881 0.000000
vn 0.728985 -0.684530 0.000000
vn 0.858460 -0.512881 0.000000
vn 0.565818 -0.824530 0.000000
vn 0.728985 -0.684530 0.000000
vn 0.376493 -0.926419 0.000000
vn 0.565818 -0.824530 0.000000
vn 0.376493 -0.926419 0.000000
vn -1.000000 0.000000 0.000000
vn -1.000000 0.000000 0.000000
vn -1.000000 0.000000 0.000000
vn -0.000000 -1.000000 -0.000000
vn 0.000000 -1.000000 -0.000000
vn 0.000000 -0.707107 0.707107
vn 0.000000 -0.707107 0.707107
vn 0.000000 0.000000 -1.000000
vn 0.000000 0.000000 -1.000000
vn 0.000000 0.000000 1.000000
vn 0.000000 0.000000 1.000000
vn 0.000000 1.000000 0.000000
vn 0.000000 1.000000 0.000000
vn 1.000000 0.000000 0.000000
vn 1.000000 0.000000 0.000000
vn 1.000000 -0.000000 0.000000
g Four Corner Fillet
f 1//1 2//1 3//1
f 4//2 2//2 1//2
f 5//3 6//3 7//3
f 8//4 9//4 6//4
f 2//5 5//5 10//5
f 2//6 6//6 5//6
f 2//7 8//7 6//7
f 11//8 2//8 10//8
f 12//9 13//9 14//9
f 12//10 15//10 13//10
f 12//11 16//11 15//11
f 17//12 18//12 19//12
f 17//13 19//13 16//13
f 17//14 16//14 12//14
f 3//15 11//15 18//15
f 3//16 2//16 11//16
f 20//17 21//17 3//17
f 22//18 23//18 20//18
f 22//19 20//19 3//19
f 24//20 22//20 3//20
f 25//21 26//21 24//21
f 25//22 24//22 3//22
f 27//23 28//23 25//23
f 27//24 18//24 17//24
f 27//25 3//25 18//25
f 27//26 25//26 3//26
f 29//27 30//27 28//27
f 31//28 27//28 32//28
f 33//29 34//29 29//29
f 33//30 29//30 28//30
f 33//31 28//31 27//31
f 33//32 27//32 31//32
f 8//33 4//33 35//33
f 8//34 2//34 4//34
f 9//35 35//35 36//35
f 9//36 8//36 35//36
f 6//37 36//37 37//37
f 6//38 9//38 36//38
f 7//39 37//39 38//39
f 7//40 6//40 37//40
f 5//41 38//41 39//41
f 5//42 7//42 38//42
f 10//43 39//43 40//43
f 10//44 5//44 39//44
f 1//45 21//45 41//45
f 3//46 21//46 1//46
f 41//47 20//47 42//47
f 21//48 20//48 41//48
f 42//49 23//49 43//49
f 20//50 23//50 42//50
f 43//51 22//51 44//51
f 23//52 22//52 43//52
f 44//53 24//53 45//53
f 22//54 24//54 44//54
f 45//55 26//55 46//55
f 24//56 26//56 45//56
f 46//57 25//57 47//57
f 26//58 25//58 46//58
f 37//59 39//59 38//59
f 36//60 35//60 37//60
f 39//61 4//61 40//61
f 37//62 4//62 39//62
f 35//63 4//63 37//63
f 4//64 48//64 40//64
f 49//65 50//65 51//65
f 52//66 53//66 54//66
f 50//67 53//67 52//67
f 49//68 53//68 50//68
f 55//69 56//69 49//69
f 49//70 56//70 53//70
f 4//71 1//71 48//71
f 41//72 42//72 1//72
f 43//73 44//73 42//73
f 42//74 44//74 1//74
f 44//75 45//75 1//75
f 46//76 47//76 45//76
f 45//77 47//77 1//77
f 57//78 58//78 47//78
f 48//79 58//79 55//79
f 1//80 58//80 48//80
f 55//81 58//81 56//81
f 47//82 58//82 1//82
f 59//83 60//83 57//83
f 58//84 61//84 62//84
f 63//85 64//85 60//85
f 57//86 64//86 58//86
f 60//87 64//87 57//87
f 58//88 64//88 61//88
f 48//89 11//89 40//89
f 40//90 11//90 10//90
f 28//91 57//91 47//91
f 28//92 47//92 25//92
f 55//93 18//93 48//93
f 48//94 18//94 11//94
f 57//95 30//95 59//95
f 28//96 30//96 57//96
f 59//97 29//97 60//97
f 30//98 29//98 59//98
f 60//99 34//99 63//99
f 29//100 34//100 60//100
f 63//101 33//101 64//101
f 34//102 33//102 63//102
f 64//103 31//103 61//103
f 33//104 31//104 64//104
f 61//105 32//105 62//105
f 31//106 32//106 61//106
f 62//107 27//107 58//107
f 32//108 27//108 62//108
f 18//109 55//109 49//109
f 18//110 49//110 19//110
f 17//111 58//111 27//111
f 17//112 56//112 58//112
f 56//113 17//113 53//113
f 53//114 12//114 54//114
f 17//115 12//115 53//115
f 12//116 14//116 54//116
f 54//117 13//117 52//117
f 52//118 13//118 50//118
f 14//119 13//119 54//119
f 50//120 15//120 51//120
f 13//121 15//121 50//121
f 51//122 16//122 49//122
f 15//123 16//123 51//123
f 16//124 19//124 49//124
g Chamfer001
f 65//125 66//125 67//125
f 67//126 66//126 68//126
f 68//127 66//127 69//127
f 70//128 71//128 67//128
f 67//129 71//129 65//129
f 72//130 66//130 65//130
f 72//131 65//131 71//131
f 68//132 73//132 67//132
f 67//133 73//133 70//133
f 69//134 66//134 72//134
f 74//135 69//135 72//135
f 74//136 73//136 68//136
f 74//137 68//137 69//137
f 72//138 71//138 70//138
f 72//139 70//139 73//139
f 72//140 73//140 74//140
